# This file uses centimeters as units for non-parametric coordinates.

mtllib player_Rleg.mtl
g default
v -0.405830 -0.026338 -0.086827
v -0.445740 -0.026338 -0.165155
v -0.507901 -0.026338 -0.227317
v -0.586229 -0.026338 -0.267227
v -0.673057 -0.026338 -0.280979
v -0.759884 -0.026338 -0.267227
v -0.838212 -0.026338 -0.227317
v -0.900374 -0.026338 -0.165155
v -0.940284 -0.026338 -0.086827
v -0.954036 -0.026338 -0.000000
v -0.940284 -0.026338 0.086827
v -0.900374 -0.026338 0.165155
v -0.838212 -0.026338 0.227317
v -0.759884 -0.026338 0.267227
v -0.673057 -0.026338 0.280979
v -0.586229 -0.026338 0.267227
v -0.507901 -0.026338 0.227317
v -0.445740 -0.026338 0.165155
v -0.405830 -0.026338 0.086827
v -0.392078 -0.026338 -0.000000
v -0.335691 0.184997 -0.120178
v -0.390931 0.184997 -0.228592
v -0.476969 0.184997 -0.314630
v -0.585383 0.184997 -0.369869
v -0.705561 0.184997 -0.388904
v -0.825739 0.184997 -0.369869
v -0.934153 0.184997 -0.314630
v -1.020190 0.184997 -0.228592
v -1.075430 0.184997 -0.120178
v -1.094464 0.184997 -0.000000
v -1.075430 0.184997 0.120178
v -1.020190 0.184997 0.228592
v -0.934153 0.184997 0.314630
v -0.825739 0.184997 0.369869
v -0.705561 0.184997 0.388903
v -0.585383 0.184997 0.369869
v -0.476969 0.184997 0.314630
v -0.390931 0.184997 0.228592
v -0.335692 0.184997 0.120178
v -0.316657 0.184997 -0.000000
v -0.288337 1.006843 -0.145508
v -0.355219 1.006843 -0.276772
v -0.459391 1.006843 -0.380944
v -0.590656 1.006843 -0.447827
v -0.736164 1.006843 -0.470873
v -0.881671 1.006843 -0.447827
v -1.012936 1.006843 -0.380944
v -1.117108 1.006843 -0.276772
v -1.183990 1.006843 -0.145508
v -1.207037 1.006843 0.000000
v -1.183990 1.006843 0.145508
v -1.117108 1.006843 0.276772
v -1.012936 1.006843 0.380944
v -0.881671 1.006843 0.447827
v -0.736164 1.006843 0.470873
v -0.590656 1.006843 0.447827
v -0.459391 1.006843 0.380944
v -0.355219 1.006843 0.276772
v -0.288337 1.006843 0.145508
v -0.265291 1.006843 0.000000
v -0.350132 1.780776 -0.132476
v -0.411024 1.780776 -0.251984
v -0.505867 1.780776 -0.346826
v -0.625375 1.780776 -0.407718
v -0.757850 1.780776 -0.428700
v -0.890326 1.780776 -0.407718
v -1.009834 1.780776 -0.346826
v -1.104676 1.780776 -0.251984
v -1.165568 1.780776 -0.132476
v -1.186550 1.780776 -0.000000
v -1.165568 1.780776 0.132476
v -1.104676 1.780776 0.251984
v -1.009834 1.780776 0.346826
v -0.890326 1.780776 0.407718
v -0.757850 1.780776 0.428700
v -0.625375 1.780776 0.407718
v -0.505867 1.780776 0.346826
v -0.411025 1.780776 0.251984
v -0.350132 1.780776 0.132476
v -0.329150 1.780776 -0.000000
v -0.281238 2.217193 -0.154861
v -0.352420 2.217193 -0.294562
v -0.463288 2.217193 -0.405430
v -0.602990 2.217193 -0.476612
v -0.757850 2.217193 -0.501140
v -0.912711 2.217193 -0.476612
v -1.052413 2.217193 -0.405430
v -1.163281 2.217193 -0.294562
v -1.234462 2.217193 -0.154861
v -1.258990 2.217193 0.000000
v -1.234462 2.217193 0.154861
v -1.163280 2.217193 0.294562
v -1.052413 2.217193 0.405430
v -0.912711 2.217193 0.476612
v -0.757850 2.217193 0.501139
v -0.602990 2.217193 0.476612
v -0.463288 2.217193 0.405430
v -0.352420 2.217193 0.294562
v -0.281238 2.217193 0.154861
v -0.256711 2.217193 0.000000
v -0.226175 2.731453 -0.172752
v -0.305580 2.731453 -0.328593
v -0.429257 2.731453 -0.452270
v -0.585099 2.731453 -0.531675
v -0.757850 2.731453 -0.559036
v -0.930602 2.731453 -0.531675
v -1.086443 2.731453 -0.452270
v -1.210120 2.731453 -0.328593
v -1.289525 2.731453 -0.172752
v -1.316886 2.731453 0.000000
v -1.289525 2.731453 0.172752
v -1.210120 2.731453 0.328593
v -1.086443 2.731453 0.452270
v -0.930602 2.731453 0.531675
v -0.757850 2.731453 0.559036
v -0.585099 2.731453 0.531675
v -0.429257 2.731453 0.452270
v -0.305581 2.731453 0.328593
v -0.226176 2.731453 0.172752
v -0.198814 2.731453 0.000000
v -0.225660 3.452800 -0.172919
v -0.305142 3.452800 -0.328912
v -0.428939 3.452800 -0.452708
v -0.584931 3.452800 -0.532190
v -0.757850 3.452800 -0.559578
v -0.930769 3.452800 -0.532190
v -1.086762 3.452800 -0.452708
v -1.210558 3.452800 -0.328911
v -1.290040 3.452800 -0.172919
v -1.317428 3.452800 0.000000
v -1.290040 3.452800 0.172919
v -1.210558 3.452800 0.328911
v -1.086762 3.452800 0.452708
v -0.930769 3.452800 0.532190
v -0.757850 3.452800 0.559578
v -0.584931 3.452800 0.532190
v -0.428939 3.452800 0.452708
v -0.305142 3.452800 0.328911
v -0.225660 3.452800 0.172919
v -0.198273 3.452800 0.000000
v -0.757850 -0.026338 0.000000
v -0.757850 3.452800 -0.000000
vt 0.648603 0.107966
vt 0.626409 0.064408
vt 0.591842 0.029841
vt 0.548284 0.007647
vt 0.500000 -0.000000
vt 0.451716 0.007647
vt 0.408159 0.029841
vt 0.373591 0.064409
vt 0.351397 0.107966
vt 0.343750 0.156250
vt 0.351397 0.204534
vt 0.373591 0.248091
vt 0.408159 0.282659
vt 0.451716 0.304853
vt 0.500000 0.312500
vt 0.548284 0.304853
vt 0.591841 0.282659
vt 0.626409 0.248091
vt 0.648603 0.204534
vt 0.656250 0.156250
vt 0.375000 0.312500
vt 0.387500 0.312500
vt 0.400000 0.312500
vt 0.412500 0.312500
vt 0.425000 0.312500
vt 0.437500 0.312500
vt 0.450000 0.312500
vt 0.462500 0.312500
vt 0.475000 0.312500
vt 0.487500 0.312500
vt 0.500000 0.312500
vt 0.512500 0.312500
vt 0.525000 0.312500
vt 0.537500 0.312500
vt 0.550000 0.312500
vt 0.562500 0.312500
vt 0.575000 0.312500
vt 0.587500 0.312500
vt 0.600000 0.312500
vt 0.612500 0.312500
vt 0.625000 0.312500
vt 0.375000 0.375157
vt 0.387500 0.375157
vt 0.400000 0.375157
vt 0.412500 0.375157
vt 0.425000 0.375157
vt 0.437500 0.375157
vt 0.450000 0.375157
vt 0.462500 0.375157
vt 0.475000 0.375157
vt 0.487500 0.375157
vt 0.500000 0.375157
vt 0.512500 0.375157
vt 0.525000 0.375157
vt 0.537500 0.375157
vt 0.550000 0.375157
vt 0.562500 0.375157
vt 0.575000 0.375157
vt 0.587500 0.375157
vt 0.600000 0.375157
vt 0.612500 0.375157
vt 0.625000 0.375157
vt 0.375000 0.437813
vt 0.387500 0.437813
vt 0.400000 0.437813
vt 0.412500 0.437813
vt 0.425000 0.437813
vt 0.437500 0.437813
vt 0.450000 0.437813
vt 0.462500 0.437813
vt 0.475000 0.437813
vt 0.487500 0.437813
vt 0.500000 0.437813
vt 0.512500 0.437813
vt 0.525000 0.437813
vt 0.537500 0.437813
vt 0.550000 0.437813
vt 0.562500 0.437813
vt 0.575000 0.437813
vt 0.587500 0.437813
vt 0.600000 0.437813
vt 0.612500 0.437813
vt 0.625000 0.437813
vt 0.375000 0.500470
vt 0.387500 0.500470
vt 0.400000 0.500470
vt 0.412500 0.500470
vt 0.425000 0.500470
vt 0.437500 0.500470
vt 0.450000 0.500470
vt 0.462500 0.500470
vt 0.475000 0.500470
vt 0.487500 0.500470
vt 0.500000 0.500470
vt 0.512500 0.500470
vt 0.525000 0.500470
vt 0.537500 0.500470
vt 0.550000 0.500470
vt 0.562500 0.500470
vt 0.575000 0.500470
vt 0.587500 0.500470
vt 0.600000 0.500470
vt 0.612500 0.500470
vt 0.625000 0.500470
vt 0.375000 0.563127
vt 0.387500 0.563127
vt 0.400000 0.563127
vt 0.412500 0.563127
vt 0.425000 0.563127
vt 0.437500 0.563127
vt 0.450000 0.563127
vt 0.462500 0.563127
vt 0.475000 0.563127
vt 0.487500 0.563127
vt 0.500000 0.563127
vt 0.512500 0.563127
vt 0.525000 0.563127
vt 0.537500 0.563127
vt 0.550000 0.563127
vt 0.562500 0.563127
vt 0.575000 0.563127
vt 0.587500 0.563127
vt 0.600000 0.563127
vt 0.612500 0.563127
vt 0.625000 0.563127
vt 0.375000 0.625783
vt 0.387500 0.625783
vt 0.400000 0.625783
vt 0.412500 0.625783
vt 0.425000 0.625783
vt 0.437500 0.625783
vt 0.450000 0.625783
vt 0.462500 0.625783
vt 0.475000 0.625783
vt 0.487500 0.625783
vt 0.500000 0.625783
vt 0.512500 0.625783
vt 0.525000 0.625783
vt 0.537500 0.625783
vt 0.550000 0.625783
vt 0.562500 0.625783
vt 0.575000 0.625783
vt 0.587500 0.625783
vt 0.600000 0.625783
vt 0.612500 0.625783
vt 0.625000 0.625783
vt 0.375000 0.688440
vt 0.387500 0.688440
vt 0.400000 0.688440
vt 0.412500 0.688440
vt 0.425000 0.688440
vt 0.437500 0.688440
vt 0.450000 0.688440
vt 0.462500 0.688440
vt 0.475000 0.688440
vt 0.487500 0.688440
vt 0.500000 0.688440
vt 0.512500 0.688440
vt 0.525000 0.688440
vt 0.537500 0.688440
vt 0.550000 0.688440
vt 0.562500 0.688440
vt 0.575000 0.688440
vt 0.587500 0.688440
vt 0.600000 0.688440
vt 0.612500 0.688440
vt 0.625000 0.688440
vt 0.648603 0.795466
vt 0.626409 0.751908
vt 0.591842 0.717341
vt 0.548284 0.695147
vt 0.500000 0.687500
vt 0.451716 0.695147
vt 0.408159 0.717341
vt 0.373591 0.751909
vt 0.351397 0.795466
vt 0.343750 0.843750
vt 0.351397 0.892034
vt 0.373591 0.935591
vt 0.408159 0.970159
vt 0.451716 0.992353
vt 0.500000 1.000000
vt 0.548284 0.992353
vt 0.591841 0.970159
vt 0.626409 0.935591
vt 0.648603 0.892034
vt 0.656250 0.843750
vt 0.500000 0.150000
vt 0.500000 0.837500
vn 0.900874 -0.341310 -0.268205
vn 0.772594 -0.357802 -0.524477
vn 0.946976 -0.115339 -0.299887
vn 0.807788 -0.123110 -0.576474
vn 0.569461 -0.383699 -0.726972
vn 0.589885 -0.135344 -0.796064
vn 0.313262 -0.415910 -0.853748
vn 0.314929 -0.150717 -0.937072
vn 0.032468 -0.450603 -0.892134
vn 0.010195 -0.167631 -0.985797
vn -0.242518 -0.483948 -0.840821
vn -0.294207 -0.184398 -0.937784
vn -0.484305 -0.512746 -0.708901
vn -0.568423 -0.199410 -0.798205
vn -0.671680 -0.534726 -0.512751
vn -0.785884 -0.211283 -0.581160
vn -0.790470 -0.548512 -0.272564
vn -0.925827 -0.218959 -0.308061
vn -0.832888 -0.553442 -0.000000
vn -0.974837 -0.222919 -0.000000
vn -0.790470 -0.548512 0.272564
vn -0.925827 -0.218959 0.308061
vn -0.671680 -0.534726 0.512751
vn -0.785883 -0.211283 0.581160
vn -0.484305 -0.512746 0.708901
vn -0.568423 -0.199410 0.798205
vn -0.242518 -0.483948 0.840821
vn -0.294207 -0.184398 0.937785
vn 0.032468 -0.450603 0.892134
vn 0.010195 -0.167631 0.985797
vn 0.313262 -0.415909 0.853748
vn 0.314930 -0.150717 0.937072
vn 0.569461 -0.383699 0.726973
vn 0.589885 -0.135344 0.796064
vn 0.772594 -0.357802 0.524477
vn 0.807788 -0.123110 0.576474
vn 0.900873 -0.341310 0.268206
vn 0.946976 -0.115339 0.299888
vn 0.941821 -0.336114 -0.000000
vn 0.993776 -0.111395 0.000001
vn 0.951151 0.006435 -0.308659
vn 0.808925 0.001876 -0.587909
vn 0.587341 -0.005227 -0.809323
vn 0.308275 -0.014165 -0.951192
vn -0.000772 -0.024048 -0.999711
vn -0.309444 -0.033905 -0.950313
vn -0.587554 -0.042774 -0.808054
vn -0.808037 -0.049800 -0.587023
vn -0.949546 -0.054310 -0.308889
vn -0.998347 -0.057480 0.000000
vn -0.949546 -0.054310 0.308889
vn -0.808037 -0.049800 0.587023
vn -0.587554 -0.042774 0.808054
vn -0.309444 -0.033905 0.950313
vn -0.000771 -0.024048 0.999711
vn 0.308276 -0.014165 0.951192
vn 0.587341 -0.005227 0.809323
vn 0.808925 0.001876 0.587909
vn 0.951151 0.006435 0.308660
vn 0.999955 0.009478 0.000001
vn 0.950717 -0.010691 -0.309876
vn 0.807491 -0.013297 -0.589730
vn 0.584685 -0.017340 -0.811075
vn 0.304617 -0.022406 -0.952211
vn -0.004855 -0.027983 -0.999597
vn -0.313231 -0.033519 -0.949085
vn -0.590453 -0.038475 -0.806154
vn -0.809814 -0.042382 -0.585154
vn -0.950409 -0.044876 -0.307747
vn -0.998914 -0.046522 -0.002513
vn -0.951929 -0.044876 0.303015
vn -0.812712 -0.042381 0.581122
vn -0.594447 -0.038474 0.803214
vn -0.317930 -0.033518 0.947522
vn -0.009799 -0.027982 0.999560
vn 0.299910 -0.022405 0.953704
vn 0.580678 -0.017339 0.813949
vn 0.804575 -0.013297 0.593702
vn 0.949179 -0.010691 0.314555
vn 0.999958 -0.008820 0.002437
vn 0.944013 -0.133926 -0.301502
vn 0.804640 -0.133926 -0.578462
vn 0.586503 -0.133927 -0.798798
vn 0.310956 -0.133926 -0.940941
vn 0.004969 -0.133926 -0.990979
vn -0.301503 -0.133926 -0.944013
vn -0.578462 -0.133926 -0.804640
vn -0.798798 -0.133926 -0.586503
vn -0.940941 -0.133926 -0.310956
vn -0.990979 -0.133926 -0.004970
vn -0.944013 -0.133926 0.301503
vn -0.804640 -0.133926 0.578462
vn -0.586503 -0.133926 0.798798
vn -0.310956 -0.133926 0.940941
vn -0.004970 -0.133926 0.990979
vn 0.301503 -0.133926 0.944012
vn 0.578462 -0.133926 0.804640
vn 0.798798 -0.133926 0.586503
vn 0.940941 -0.133926 0.310956
vn 0.990979 -0.133926 0.004970
vn 0.950580 -0.045577 -0.307116
vn 0.809151 -0.045577 -0.585831
vn 0.588516 -0.045577 -0.807200
vn 0.310274 -0.045577 -0.949554
vn 0.001660 -0.045577 -0.998959
vn -0.307117 -0.045577 -0.950580
vn -0.585831 -0.045577 -0.809151
vn -0.807200 -0.045577 -0.588516
vn -0.949554 -0.045577 -0.310274
vn -0.998959 -0.045577 -0.001660
vn -0.950580 -0.045577 0.307117
vn -0.809151 -0.045577 0.585831
vn -0.588517 -0.045577 0.807200
vn -0.310274 -0.045577 0.949554
vn -0.001660 -0.045577 0.998959
vn 0.307117 -0.045577 0.950580
vn 0.585831 -0.045577 0.809151
vn 0.807199 -0.045577 0.588517
vn 0.949554 -0.045577 0.310274
vn 0.998959 -0.045577 0.001661
vn 0.951067 -0.000751 -0.308984
vn 0.809036 -0.000751 -0.587758
vn 0.587812 -0.000751 -0.808997
vn 0.309049 -0.000751 -0.951046
vn 0.000033 -0.000751 -1.000000
vn -0.308985 -0.000751 -0.951066
vn -0.587758 -0.000751 -0.809036
vn -0.808997 -0.000751 -0.587812
vn -0.951046 -0.000751 -0.309048
vn -1.000000 -0.000751 -0.000033
vn -0.951066 -0.000751 0.308985
vn -0.809036 -0.000751 0.587758
vn -0.587812 -0.000751 0.808997
vn -0.309049 -0.000751 0.951046
vn -0.000034 -0.000751 1.000000
vn 0.308985 -0.000751 0.951067
vn 0.587758 -0.000751 0.809036
vn 0.808997 -0.000751 0.587812
vn 0.951046 -0.000751 0.309048
vn 1.000000 -0.000751 0.000034
vn 0.000000 -1.000000 0.000000
vn 0.000000 -1.000000 0.000000
vn 0.000000 -1.000000 0.000000
vn 0.000000 -1.000000 0.000000
vn 0.000000 -1.000000 0.000000
vn 0.000000 -1.000000 0.000000
vn 0.000000 -1.000000 0.000000
vn 0.000000 -1.000000 0.000000
vn 0.000000 -1.000000 0.000000
vn 0.000000 -1.000000 0.000000
vn 0.000000 -1.000000 0.000000
vn 0.000000 -1.000000 0.000000
vn 0.000000 -1.000000 0.000000
vn 0.000000 -1.000000 0.000000
vn 0.000000 -1.000000 0.000000
vn 0.000000 -1.000000 0.000000
vn 0.000000 -1.000000 0.000000
vn 0.000000 -1.000000 0.000000
vn 0.000000 -1.000000 0.000000
vn 0.000000 -1.000000 0.000000
vn 0.000000 -1.000000 0.000000
vn 0.000000 1.000000 0.000001
vn 0.000000 1.000000 0.000000
vn 0.000000 1.000000 -0.000000
vn 0.000000 1.000000 -0.000001
vn 0.000000 1.000000 0.000000
vn 0.000000 1.000000 -0.000000
vn 0.000000 1.000000 -0.000000
vn 0.000000 1.000000 0.000000
vn 0.000000 1.000000 0.000000
vn 0.000000 1.000000 0.000000
vn 0.000000 1.000000 0.000000
vn 0.000000 1.000000 0.000000
vn 0.000000 1.000000 0.000000
vn 0.000000 1.000000 0.000000
vn 0.000000 1.000000 0.000000
vn 0.000000 1.000000 0.000000
vn 0.000000 1.000000 0.000000
vn 0.000000 1.000000 -0.000000
vn 0.000000 1.000000 0.000000
vn 0.000000 1.000000 0.000000
vn 0.000000 1.000000 -0.000001
s 1
g pCylinder1
usemtl lambert2SG
f 1/21/1 2/22/2 21/42/3
f 21/42/3 2/22/2 22/43/4
f 2/22/2 3/23/5 22/43/4
f 22/43/4 3/23/5 23/44/6
f 3/23/5 4/24/7 23/44/6
f 23/44/6 4/24/7 24/45/8
f 4/24/7 5/25/9 24/45/8
f 24/45/8 5/25/9 25/46/10
f 5/25/9 6/26/11 25/46/10
f 25/46/10 6/26/11 26/47/12
f 6/26/11 7/27/13 26/47/12
f 26/47/12 7/27/13 27/48/14
f 7/27/13 8/28/15 27/48/14
f 27/48/14 8/28/15 28/49/16
f 8/28/15 9/29/17 28/49/16
f 28/49/16 9/29/17 29/50/18
f 9/29/17 10/30/19 29/50/18
f 29/50/18 10/30/19 30/51/20
f 11/31/21 31/52/22 10/30/19
f 10/30/19 31/52/22 30/51/20
f 12/32/23 32/53/24 11/31/21
f 11/31/21 32/53/24 31/52/22
f 13/33/25 33/54/26 12/32/23
f 12/32/23 33/54/26 32/53/24
f 14/34/27 34/55/28 13/33/25
f 13/33/25 34/55/28 33/54/26
f 15/35/29 35/56/30 14/34/27
f 14/34/27 35/56/30 34/55/28
f 16/36/31 36/57/32 15/35/29
f 15/35/29 36/57/32 35/56/30
f 17/37/33 37/58/34 16/36/31
f 16/36/31 37/58/34 36/57/32
f 18/38/35 38/59/36 17/37/33
f 17/37/33 38/59/36 37/58/34
f 19/39/37 39/60/38 18/38/35
f 18/38/35 39/60/38 38/59/36
f 20/40/39 40/61/40 19/39/37
f 19/39/37 40/61/40 39/60/38
f 20/40/39 1/41/1 40/61/40
f 40/61/40 1/41/1 21/62/3
f 21/42/3 22/43/4 41/63/41
f 41/63/41 22/43/4 42/64/42
f 22/43/4 23/44/6 42/64/42
f 42/64/42 23/44/6 43/65/43
f 23/44/6 24/45/8 43/65/43
f 43/65/43 24/45/8 44/66/44
f 24/45/8 25/46/10 44/66/44
f 44/66/44 25/46/10 45/67/45
f 25/46/10 26/47/12 45/67/45
f 45/67/45 26/47/12 46/68/46
f 26/47/12 27/48/14 46/68/46
f 46/68/46 27/48/14 47/69/47
f 27/48/14 28/49/16 47/69/47
f 47/69/47 28/49/16 48/70/48
f 28/49/16 29/50/18 48/70/48
f 48/70/48 29/50/18 49/71/49
f 29/50/18 30/51/20 49/71/49
f 49/71/49 30/51/20 50/72/50
f 31/52/22 51/73/51 30/51/20
f 30/51/20 51/73/51 50/72/50
f 32/53/24 52/74/52 31/52/22
f 31/52/22 52/74/52 51/73/51
f 33/54/26 53/75/53 32/53/24
f 32/53/24 53/75/53 52/74/52
f 34/55/28 54/76/54 33/54/26
f 33/54/26 54/76/54 53/75/53
f 35/56/30 55/77/55 34/55/28
f 34/55/28 55/77/55 54/76/54
f 36/57/32 56/78/56 35/56/30
f 35/56/30 56/78/56 55/77/55
f 37/58/34 57/79/57 36/57/32
f 36/57/32 57/79/57 56/78/56
f 38/59/36 58/80/58 37/58/34
f 37/58/34 58/80/58 57/79/57
f 39/60/38 59/81/59 38/59/36
f 38/59/36 59/81/59 58/80/58
f 40/61/40 60/82/60 39/60/38
f 39/60/38 60/82/60 59/81/59
f 40/61/40 21/62/3 60/82/60
f 60/82/60 21/62/3 41/83/41
f 41/63/41 42/64/42 61/84/61
f 61/84/61 42/64/42 62/85/62
f 42/64/42 43/65/43 62/85/62
f 62/85/62 43/65/43 63/86/63
f 43/65/43 44/66/44 63/86/63
f 63/86/63 44/66/44 64/87/64
f 44/66/44 45/67/45 64/87/64
f 64/87/64 45/67/45 65/88/65
f 45/67/45 46/68/46 65/88/65
f 65/88/65 46/68/46 66/89/66
f 46/68/46 47/69/47 66/89/66
f 66/89/66 47/69/47 67/90/67
f 47/69/47 48/70/48 67/90/67
f 67/90/67 48/70/48 68/91/68
f 48/70/48 49/71/49 68/91/68
f 68/91/68 49/71/49 69/92/69
f 49/71/49 50/72/50 69/92/69
f 69/92/69 50/72/50 70/93/70
f 51/73/51 71/94/71 50/72/50
f 50/72/50 71/94/71 70/93/70
f 52/74/52 72/95/72 51/73/51
f 51/73/51 72/95/72 71/94/71
f 53/75/53 73/96/73 52/74/52
f 52/74/52 73/96/73 72/95/72
f 54/76/54 74/97/74 53/75/53
f 53/75/53 74/97/74 73/96/73
f 55/77/55 75/98/75 54/76/54
f 54/76/54 75/98/75 74/97/74
f 56/78/56 76/99/76 55/77/55
f 55/77/55 76/99/76 75/98/75
f 57/79/57 77/100/77 56/78/56
f 56/78/56 77/100/77 76/99/76
f 58/80/58 78/101/78 57/79/57
f 57/79/57 78/101/78 77/100/77
f 59/81/59 79/102/79 58/80/58
f 58/80/58 79/102/79 78/101/78
f 60/82/60 80/103/80 59/81/59
f 59/81/59 80/103/80 79/102/79
f 60/82/60 41/83/41 80/103/80
f 80/103/80 41/83/41 61/104/61
f 61/84/61 62/85/62 81/105/81
f 81/105/81 62/85/62 82/106/82
f 62/85/62 63/86/63 82/106/82
f 82/106/82 63/86/63 83/107/83
f 63/86/63 64/87/64 83/107/83
f 83/107/83 64/87/64 84/108/84
f 64/87/64 65/88/65 84/108/84
f 84/108/84 65/88/65 85/109/85
f 65/88/65 66/89/66 85/109/85
f 85/109/85 66/89/66 86/110/86
f 66/89/66 67/90/67 86/110/86
f 86/110/86 67/90/67 87/111/87
f 67/90/67 68/91/68 87/111/87
f 87/111/87 68/91/68 88/112/88
f 68/91/68 69/92/69 88/112/88
f 88/112/88 69/92/69 89/113/89
f 69/92/69 70/93/70 89/113/89
f 89/113/89 70/93/70 90/114/90
f 70/93/70 71/94/71 90/114/90
f 90/114/90 71/94/71 91/115/91
f 71/94/71 72/95/72 91/115/91
f 91/115/91 72/95/72 92/116/92
f 72/95/72 73/96/73 92/116/92
f 92/116/92 73/96/73 93/117/93
f 73/96/73 74/97/74 93/117/93
f 93/117/93 74/97/74 94/118/94
f 74/97/74 75/98/75 94/118/94
f 94/118/94 75/98/75 95/119/95
f 75/98/75 76/99/76 95/119/95
f 95/119/95 76/99/76 96/120/96
f 76/99/76 77/100/77 96/120/96
f 96/120/96 77/100/77 97/121/97
f 77/100/77 78/101/78 97/121/97
f 97/121/97 78/101/78 98/122/98
f 78/101/78 79/102/79 98/122/98
f 98/122/98 79/102/79 99/123/99
f 79/102/79 80/103/80 99/123/99
f 99/123/99 80/103/80 100/124/100
f 80/103/80 61/104/61 100/124/100
f 100/124/100 61/104/61 81/125/81
f 81/105/81 82/106/82 101/126/101
f 101/126/101 82/106/82 102/127/102
f 82/106/82 83/107/83 102/127/102
f 102/127/102 83/107/83 103/128/103
f 83/107/83 84/108/84 103/128/103
f 103/128/103 84/108/84 104/129/104
f 84/108/84 85/109/85 104/129/104
f 104/129/104 85/109/85 105/130/105
f 85/109/85 86/110/86 105/130/105
f 105/130/105 86/110/86 106/131/106
f 86/110/86 87/111/87 106/131/106
f 106/131/106 87/111/87 107/132/107
f 87/111/87 88/112/88 107/132/107
f 107/132/107 88/112/88 108/133/108
f 88/112/88 89/113/89 108/133/108
f 108/133/108 89/113/89 109/134/109
f 89/113/89 90/114/90 109/134/109
f 109/134/109 90/114/90 110/135/110
f 90/114/90 91/115/91 110/135/110
f 110/135/110 91/115/91 111/136/111
f 91/115/91 92/116/92 111/136/111
f 111/136/111 92/116/92 112/137/112
f 92/116/92 93/117/93 112/137/112
f 112/137/112 93/117/93 113/138/113
f 93/117/93 94/118/94 113/138/113
f 113/138/113 94/118/94 114/139/114
f 94/118/94 95/119/95 114/139/114
f 114/139/114 95/119/95 115/140/115
f 95/119/95 96/120/96 115/140/115
f 115/140/115 96/120/96 116/141/116
f 96/120/96 97/121/97 116/141/116
f 116/141/116 97/121/97 117/142/117
f 97/121/97 98/122/98 117/142/117
f 117/142/117 98/122/98 118/143/118
f 98/122/98 99/123/99 118/143/118
f 118/143/118 99/123/99 119/144/119
f 99/123/99 100/124/100 119/144/119
f 119/144/119 100/124/100 120/145/120
f 100/124/100 81/125/81 120/145/120
f 120/145/120 81/125/81 101/146/101
f 101/126/101 102/127/102 121/147/121
f 121/147/121 102/127/102 122/148/122
f 102/127/102 103/128/103 122/148/122
f 122/148/122 103/128/103 123/149/123
f 103/128/103 104/129/104 123/149/123
f 123/149/123 104/129/104 124/150/124
f 104/129/104 105/130/105 124/150/124
f 124/150/124 105/130/105 125/151/125
f 105/130/105 106/131/106 125/151/125
f 125/151/125 106/131/106 126/152/126
f 106/131/106 107/132/107 126/152/126
f 126/152/126 107/132/107 127/153/127
f 107/132/107 108/133/108 127/153/127
f 127/153/127 108/133/108 128/154/128
f 108/133/108 109/134/109 128/154/128
f 128/154/128 109/134/109 129/155/129
f 109/134/109 110/135/110 129/155/129
f 129/155/129 110/135/110 130/156/130
f 110/135/110 111/136/111 130/156/130
f 130/156/130 111/136/111 131/157/131
f 111/136/111 112/137/112 131/157/131
f 131/157/131 112/137/112 132/158/132
f 112/137/112 113/138/113 132/158/132
f 132/158/132 113/138/113 133/159/133
f 113/138/113 114/139/114 133/159/133
f 133/159/133 114/139/114 134/160/134
f 114/139/114 115/140/115 134/160/134
f 134/160/134 115/140/115 135/161/135
f 115/140/115 116/141/116 135/161/135
f 135/161/135 116/141/116 136/162/136
f 116/141/116 117/142/117 136/162/136
f 136/162/136 117/142/117 137/163/137
f 117/142/117 118/143/118 137/163/137
f 137/163/137 118/143/118 138/164/138
f 118/143/118 119/144/119 138/164/138
f 138/164/138 119/144/119 139/165/139
f 119/144/119 120/145/120 139/165/139
f 139/165/139 120/145/120 140/166/140
f 120/145/120 101/146/101 140/166/140
f 140/166/140 101/146/101 121/167/121
s 12
f 2/2/141 1/1/142 141/188/143
f 3/3/144 2/2/141 141/188/143
f 4/4/145 3/3/144 141/188/143
f 5/5/146 4/4/145 141/188/143
f 6/6/147 5/5/146 141/188/143
f 7/7/148 6/6/147 141/188/143
f 8/8/149 7/7/148 141/188/143
f 9/9/150 8/8/149 141/188/143
f 10/10/151 9/9/150 141/188/143
f 11/11/152 10/10/151 141/188/143
f 12/12/153 11/11/152 141/188/143
f 13/13/154 12/12/153 141/188/143
f 14/14/155 13/13/154 141/188/143
f 15/15/156 14/14/155 141/188/143
f 16/16/157 15/15/156 141/188/143
f 17/17/158 16/16/157 141/188/143
f 18/18/159 17/17/158 141/188/143
f 19/19/160 18/18/159 141/188/143
f 20/20/161 19/19/160 141/188/143
f 1/1/142 20/20/161 141/188/143
s 13
f 121/186/162 122/185/163 142/189/164
f 122/185/163 123/184/165 142/189/164
f 123/184/165 124/183/166 142/189/164
f 124/183/166 125/182/167 142/189/164
f 125/182/167 126/181/168 142/189/164
f 126/181/168 127/180/169 142/189/164
f 127/180/169 128/179/170 142/189/164
f 128/179/170 129/178/171 142/189/164
f 129/178/171 130/177/172 142/189/164
f 130/177/172 131/176/173 142/189/164
f 131/176/173 132/175/174 142/189/164
f 132/175/174 133/174/175 142/189/164
f 133/174/175 134/173/176 142/189/164
f 134/173/176 135/172/177 142/189/164
f 135/172/177 136/171/178 142/189/164
f 136/171/178 137/170/179 142/189/164
f 137/170/179 138/169/180 142/189/164
f 138/169/180 139/168/181 142/189/164
f 139/168/181 140/187/182 142/189/164
f 140/187/182 121/186/162 142/189/164
